<?xml version="1.0" standalone="no"?>
<!DOCTYPE svg PUBLIC "-//W3C//DTD SVG 1.1//EN" "http://www.w3.org/Graphics/SVG/1.1/DTD/svg11.dtd" >
<svg xmlns="http://www.w3.org/2000/svg">
<metadata>
Created by FontPrep 20130207 at Thu Apr  7 10:10:05 2016
 By Chameleon
Copyright (c) 1989, 1990, 2002 Adobe Systems Incorporated.  All Rights Reserved. (c) 1981, 2002 Heidelberger Druckmaschinen AG. All rights reserved.
</metadata>
<defs>
<font id="6a9c5ad3207a4055d749d5c2c79ef7cd" horiz-adv-x='1024' >
  <font-face 
    font-family="TradeGothicLTStd-Bd2Obl"
    font-weight="700"
    font-style="italic"
    font-stretch="normal"
    units-per-em="2048"
    panose-1="0 0 8 0 0 0 0 0 0 0"
    ascent="1479"
    descent="-569"
    x-height="1065"
    cap-height="1479"
    bbox="-346 -573 2232 2001"
    underline-thickness="102"
    underline-position="-102"
    slope="-12.5"
    unicode-range="U+0020-FB02"
  />
<missing-glyph horiz-adv-x="1339" 
d="M418 1239v-1044l348 522zM479 102h697l-349 523zM889 717l348 -522v1044zM827 809l349 522h-697zM315 0v1434h1024v-1434h-1024z" />
    <glyph glyph-name="fi" unicode="fi" horiz-adv-x="1138" 
d="M856 1294q-80 0 -117 -26t-51 -88l-26 -115h215l-46 -205h-215l-190 -860h-254l190 860h-147l45 205h146l28 131q37 168 123 236t246 67h168l-45 -205h-70zM1288 1262h-254l51 237h254zM1243 1065l-235 -1065h-254l235 1065h254z" />
    <glyph glyph-name="fl" unicode="fl" horiz-adv-x="1138" 
d="M856 1294q-80 0 -117 -26t-51 -88l-26 -115h215l-46 -205h-215l-190 -860h-254l190 860h-147l45 205h146l28 131q37 168 123 236t246 67h168l-45 -205h-70zM1008 0h-254l327 1479h254z" />
    <glyph glyph-name=".notdef" horiz-adv-x="1339" 
d="M418 1239v-1044l348 522zM479 102h697l-349 523zM889 717l348 -522v1044zM827 809l349 522h-697zM315 0v1434h1024v-1434h-1024z" />
    <glyph glyph-name=".null" horiz-adv-x="0" 
 />
    <glyph glyph-name="nonmarkingreturn" horiz-adv-x="681" 
 />
    <glyph glyph-name="space" unicode=" " horiz-adv-x="624" 
 />
    <glyph glyph-name="exclam" unicode="!" horiz-adv-x="681" 
d="M481 0h-282l63 291h283zM819 1479l-270 -979h-197l164 979h303z" />
    <glyph glyph-name="quotedbl" unicode="&#x22;" horiz-adv-x="681" 
d="M254 922l123 557h229l-123 -557h-229zM608 922l123 557h230l-123 -557h-230z" />
    <glyph glyph-name="numbersign" unicode="#" 
d="M932 862h-197l-88 -246h197zM1202 616l-41 -184h-190l-154 -432h-192l151 432h-196l-154 -432h-193l152 432h-164l41 184h191l88 246h-164l41 185h188l154 432h192l-151 -432h196l154 432h192l-151 -432h164l-41 -185h-189l-88 -246h164z" />
    <glyph glyph-name="dollar" unicode="$" 
d="M584 205l98 444q-180 43 -282 147t-64 265q42 197 194 305t336 113l33 147h152l-33 -147q221 -6 375 -203l-195 -158q-55 70 -104 107t-121 49l-90 -410q213 -68 301 -176t46 -294q-42 -187 -190 -285t-350 -109l-55 -246h-152l56 246q-287 31 -400 244l211 151
q34 -84 90 -127t144 -63zM739 905l82 369q-213 -14 -252 -195q-14 -69 25 -105t145 -69zM823 604l-88 -399q94 0 169 43t95 143q35 156 -176 213z" />
    <glyph glyph-name="percent" unicode="%" horiz-adv-x="1820" 
d="M399 -20l1186 1519h174l-1186 -1519h-174zM1501 537q-68 -1 -129 -51q-60 -50 -76 -116t23 -118q39 -51 107 -51t129 50q60 50 77 118q14 68 -24 118t-107 50zM1546 737q154 -1 238 -109t49 -260t-166 -260t-285 -108t-238 109t-48 261t166 259q130 108 284 108z
M722 1278q-69 0 -129 -50q-59 -50 -75 -118t23 -118t107 -50t128 50t76 117t-22 118t-108 51zM766 1479q154 0 238 -109q84 -108 49 -260t-166 -260t-285 -109q-154 0 -238 109q-84 108 -48 260q34 152 165 260t285 109z" />
    <glyph glyph-name="ampersand" unicode="&#x26;" horiz-adv-x="1366" 
d="M475 279q51 -61 153 -61t199 81q-139 131 -223 317q-53 -37 -77 -56q-66 -52 -84 -136q-19 -84 32 -145zM901 1499q155 0 237 -95t54 -233q-29 -138 -151 -243q-83 -74 -228 -172q90 -176 195 -293q116 128 200 278l213 -61q-143 -238 -262 -363q88 -98 187 -100
l-52 -237q-109 0 -171 28t-162 127q-187 -155 -407 -155t-325 108q-104 109 -57 322q29 127 112 218t220 171q-45 96 -55 168t10 188q35 156 161 250t281 94zM867 1331q-55 -1 -103 -43t-64 -114q-27 -121 25 -240q201 127 229 246q14 66 -10 108t-77 43z" />
    <glyph glyph-name="quotesingle" unicode="'" horiz-adv-x="454" 
d="M317 922l123 557h230l-123 -557h-230z" />
    <glyph glyph-name="parenleft" unicode="(" horiz-adv-x="681" 
d="M713 1499h248q-383 -387 -483 -837t112 -834h-248q-94 226 -113 357q-35 233 20 478q56 245 162 426q105 181 302 410z" />
    <glyph glyph-name="parenright" unicode=")" horiz-adv-x="681" 
d="M262 -172h-248q380 381 482 837t-111 834h248q93 -223 114 -356q37 -232 -19 -478q-56 -245 -162 -427t-304 -410z" />
    <glyph glyph-name="asterisk" unicode="*" horiz-adv-x="1024" 
d="M721 1171l10 11l2 297h203l-119 -299l8 -11l295 152l21 -184l-310 -47l170 -218l-176 -118l-77 272l-15 -2l-190 -268l-129 108l264 215l-2 13l-291 36l94 183z" />
    <glyph glyph-name="plus" unicode="+" horiz-adv-x="1228" 
d="M868 643h422l-49 -221h-422l-94 -422h-221l94 422h-422l49 221h422l92 422h222z" />
    <glyph glyph-name="comma" unicode="," horiz-adv-x="624" 
d="M121 -307l172 307h-123l63 291h283l-63 -291l-199 -307h-133z" />
    <glyph glyph-name="hyphen" unicode="-" horiz-adv-x="681" 
d="M686 422h-502l49 221h502z" />
    <glyph glyph-name="period" unicode="." horiz-adv-x="624" 
d="M453 0h-283l63 291h283z" />
    <glyph glyph-name="slash" unicode="/" horiz-adv-x="569" 
d="M958 1499l-796 -1519h-223l796 1519h223z" />
    <glyph glyph-name="zero" unicode="0" 
d="M907 1278q-270 0 -391 -539t154 -538q270 1 391 539t-154 538zM956 1499q188 0 290 -102q102 -101 114 -271q10 -170 -33 -387q-76 -335 -241 -537q-180 -222 -465 -222q-188 0 -291 102q-102 102 -113 271q-10 169 33 386q75 332 247 546q173 214 459 214z" />
    <glyph glyph-name="one" unicode="1" 
d="M1022 0h-723l45 205h229l228 1020h-262l36 172q229 10 345 102h206l-286 -1294h227z" />
    <glyph glyph-name="two" unicode="2" 
d="M907 1278q-207 0 -317 -234l-225 52q59 172 229 288t371 115q201 0 315 -114t68 -312q-33 -160 -153 -289q-121 -129 -350 -283t-384 -272h700l-51 -229h-995l53 244q48 113 347 315q124 84 246 170q291 205 320 344q20 96 -25 151q-46 54 -149 54z" />
    <glyph glyph-name="three" unicode="3" 
d="M864 1278q-141 0 -315 -148l-139 160q244 209 495 209q213 0 329 -100t75 -281q-49 -223 -295 -319q123 -41 172 -139t18 -236q-49 -217 -228 -331t-394 -113q-164 0 -290 74t-169 212l239 121q70 -186 271 -186q104 0 193 60q90 61 108 147q32 151 -57 208
q-69 46 -214 56q-46 2 -116 2l49 221q188 0 302 43t140 164q18 80 -30 128q-49 48 -144 48z" />
    <glyph glyph-name="four" unicode="4" 
d="M125 340l57 260l826 879h288l-206 -934h208l-45 -205h-209l-75 -340h-254l76 340h-666zM375 545h461l145 659h-4z" />
    <glyph glyph-name="five" unicode="5" 
d="M912 999q194 -1 286 -151t49 -340q-55 -248 -227 -388t-434 -140q-170 0 -277 73q-106 74 -141 203l246 115q16 -76 81 -121t144 -47q135 -4 222 79t116 213q29 131 -23 207t-166 76q-154 0 -251 -127l-203 41l229 787h799l-51 -230h-598l-95 -336q100 86 294 86z" />
    <glyph glyph-name="six" unicode="6" 
d="M1010 1278q-142 0 -278 -131t-181 -320q161 119 357 119t295 -134t54 -345q-53 -227 -227 -357t-408 -130t-342 172t-36 499q86 391 305 619t518 229q188 1 342 -110l-164 -213q-93 102 -235 102zM793 725q-178 0 -304 -168q-39 -176 25 -266t176 -90t194 70
q80 71 106 191t-24 192t-173 71z" />
    <glyph glyph-name="seven" unicode="7" 
d="M395 1249l51 230h1014l-35 -154l-901 -1325h-293l875 1249h-711z" />
    <glyph glyph-name="eight" unicode="8" 
d="M909 1294q-223 0 -262 -168q-21 -92 45 -158t130 -67q64 0 164 75q100 76 116 152q18 76 -27 121t-166 45zM666 184q137 0 222 58t106 153q21 93 -78 183t-162 90q-62 0 -182 -84t-142 -184t38 -158q61 -58 198 -58zM956 1499q225 -1 338 -101t74 -268
q-26 -124 -104 -202t-213 -142q268 -127 206 -405q-39 -178 -219 -290q-180 -111 -418 -111t-368 112q-131 112 -92 289q61 276 387 405q-105 62 -149 142t-17 202q39 170 194 270q156 99 381 99z" />
    <glyph glyph-name="nine" unicode="9" 
d="M545 201q141 0 277 131t182 319q-162 -119 -358 -119t-294 134t-50 354q48 219 222 349t409 130t343 -172t35 -500q-86 -391 -305 -619t-519 -228q-188 -1 -342 110l164 213q94 -102 236 -102zM864 1278q-112 0 -193 -70t-107 -191q-26 -120 24 -192t174 -71
q178 0 303 168q39 176 -25 266t-176 90z" />
    <glyph glyph-name="colon" unicode=":" horiz-adv-x="624" 
d="M453 0h-283l63 291h283zM590 614h-283l64 291h282z" />
    <glyph glyph-name="semicolon" unicode=";" horiz-adv-x="624" 
d="M590 614h-283l64 291h282zM121 -307l172 307h-123l63 291h283l-63 -291l-199 -307h-133z" />
    <glyph glyph-name="less" unicode="&#x3c;" horiz-adv-x="1228" 
d="M1194 211l-51 -227l-965 454l43 189l1165 454l-51 -227l-831 -322z" />
    <glyph glyph-name="equal" unicode="=" horiz-adv-x="1228" 
d="M1239 418l-49 -221h-1065l49 221h1065zM1339 868l-49 -221h-1065l49 221h1065z" />
    <glyph glyph-name="greater" unicode="&#x3e;" horiz-adv-x="1228" 
d="M78 -16l51 227l834 321l-693 322l52 227l964 -454l-43 -189z" />
    <glyph glyph-name="question" unicode="?" horiz-adv-x="909" 
d="M551 0h-283l64 291h282zM771 1499q161 0 249 -87t53 -241q-24 -110 -124 -221q-33 -37 -97 -96t-92 -87t-66 -84q-37 -56 -49 -110l-16 -75h-226l25 112q29 125 201 310q63 68 88 96t58 77q75 111 21 169q-32 32 -92 32t-117 -54q-58 -54 -83 -126l-221 66
q71 154 199 236t289 83z" />
    <glyph glyph-name="at" unicode="@" horiz-adv-x="1638" 
d="M1282 492q76 0 158 89t116 242q53 240 -63 372q-117 132 -359 132t-429 -167t-245 -428t68 -421q126 -159 368 -159t441 143h185q-287 -315 -664 -315q-210 0 -364 97t-220 271t-18 389q72 322 342 542t586 220q178 0 318 -75t209 -218t28 -325q-29 -127 -92 -233
t-139 -168q-150 -126 -301 -170q-62 -17 -105 -17t-69 28t-15 76l-4 2q-114 -106 -232 -106q-118 -1 -192 107t-43 251q43 193 191 338t318 145t222 -126l45 102h180l-211 -500q-27 -68 -28 -73q-10 -45 18 -45zM1033 924q-81 0 -157 -71t-94 -159q-20 -88 10 -136t112 -48
q83 0 162 75t97 160t-15 132q-34 47 -115 47z" />
    <glyph glyph-name="A" unicode="A" 
d="M27 0l753 1481h353l92 -1481h-281l-10 319h-467l-160 -319h-280zM895 1196l-315 -643h344l-25 643h-4z" />
    <glyph glyph-name="B" unicode="B" horiz-adv-x="1366" 
d="M922 889q98 0 161 50t82 130q18 80 -23 130q-42 50 -141 50h-282l-80 -360h283zM776 229q236 0 283 215t-189 215h-282l-94 -430h282zM1036 1479q231 0 341 -86t81 -277q-55 -248 -301 -336q135 -59 172 -142t-2 -256t-194 -278q-156 -104 -428 -104h-545l327 1479h549z
" />
    <glyph glyph-name="C" unicode="C" 
d="M928 1262q-143 0 -254 -134t-166 -389q-121 -522 194 -522q98 0 174 46q75 46 164 173l248 -69q-219 -387 -637 -387q-283 0 -395 198t-31 561q80 362 280 561t482 199q416 0 430 -389l-268 -61q-25 213 -221 213z" />
    <glyph glyph-name="D" unicode="D" horiz-adv-x="1366" 
d="M684 238q233 0 348 146t162 355q113 502 -289 502h-188l-221 -1003h188zM977 1479q307 1 444 -181t56 -559q-86 -377 -303 -558t-525 -181h-489l327 1479h490z" />
    <glyph glyph-name="E" unicode="E" 
d="M1174 0h-1002l328 1479h979l-54 -238h-696l-78 -352h506l-53 -238h-506l-90 -413h719z" />
    <glyph glyph-name="F" unicode="F" horiz-adv-x="1138" 
d="M442 0h-282l327 1479h943l-54 -238h-659l-78 -352h494l-54 -238h-493z" />
    <glyph glyph-name="G" unicode="G" horiz-adv-x="1366" 
d="M700 217q142 0 244 82t135 211h-280l53 238h553l-166 -748h-205l33 152q-109 -96 -205 -134t-217 -38q-289 0 -393 204t-34 522q70 319 250 542q202 252 562 252q192 0 304 -104q112 -102 128 -274l-276 -69q-27 113 -84 161t-166 48q-154 0 -264 -142t-165 -387
q-54 -244 -1 -380q52 -136 194 -136z" />
    <glyph glyph-name="H" unicode="H" horiz-adv-x="1478" 
d="M455 0h-283l328 1479h282l-131 -590h570l131 590h282l-327 -1479h-283l141 635h-569z" />
    <glyph glyph-name="I" unicode="I" horiz-adv-x="681" 
d="M481 0h-282l327 1479h283z" />
    <glyph glyph-name="J" unicode="J" horiz-adv-x="909" 
d="M385 217q117 0 158 176l239 1086h283l-240 -1080q-94 -420 -491 -419q-217 -1 -305 198l227 146q24 -59 52 -83t77 -24z" />
    <glyph glyph-name="K" unicode="K" horiz-adv-x="1366" 
d="M442 0h-282l327 1479h283l-145 -658l639 658h325l-542 -555l282 -924h-313l-211 702l-264 -258z" />
    <glyph glyph-name="L" unicode="L" horiz-adv-x="1138" 
d="M1085 0h-925l327 1479h283l-274 -1241h643z" />
    <glyph glyph-name="M" unicode="M" horiz-adv-x="1705" 
d="M412 0h-246l328 1479h397l55 -1033h4l516 1033h402l-328 -1479h-246l258 1163h-4l-590 -1163h-215l-69 1163h-4z" />
    <glyph glyph-name="N" unicode="N" horiz-adv-x="1478" 
d="M432 0h-266l328 1479h294l359 -1008h4l223 1008h266l-327 -1479h-273l-370 1053h-4z" />
    <glyph glyph-name="O" unicode="O" horiz-adv-x="1366" 
d="M1466 739q-80 -365 -284 -563t-504 -196q-301 0 -417 198t-36 562t284 562t505 198t417 -198q115 -198 35 -563zM728 217q341 0 456 522t-221 523q-340 0 -455 -523q-121 -522 220 -522z" />
    <glyph glyph-name="P" unicode="P" 
d="M831 827q152 -1 224 53t94 158q25 104 -25 158t-200 53h-226l-92 -422h225zM1008 1479q248 0 362 -109t63 -332q-50 -224 -211 -332t-409 -108h-258l-133 -598h-283l328 1479h541z" />
    <glyph glyph-name="Q" unicode="Q" horiz-adv-x="1366" 
d="M1370 127l-53 -238q-135 0 -185 29t-124 135q-147 -74 -330 -73q-301 0 -417 198t-36 562t284 562t505 198t417 -198q115 -198 37 -552t-270 -555q68 -66 172 -68zM729 217q106 0 189 49q-50 109 -148 129l55 252q101 -10 161 -56t101 -132q57 104 97 280
q115 522 -221 523q-340 0 -455 -523q-121 -522 221 -522z" />
    <glyph glyph-name="R" unicode="R" horiz-adv-x="1366" 
d="M836 831q160 1 236 51t99 158q45 209 -194 209h-258l-92 -418h209zM1077 1479q240 0 329 -121t48 -318q-31 -139 -123 -241t-233 -140l180 -659h-313l-146 602h-244l-133 -602h-282l327 1479h590z" />
    <glyph glyph-name="S" unicode="S" 
d="M877 1278q-211 0 -246 -164q-17 -70 51 -121t170 -92t202 -92t158 -146q57 -95 29 -229q-49 -225 -209 -340t-409 -114q-184 0 -317 95q-132 95 -159 255l256 102q31 -113 93 -172t178 -59q248 0 293 196q14 68 -31 121t-122 86t-166 76t-164 89t-112 128q-38 82 -16 188
q43 191 206 303q164 112 354 112t308 -88q118 -87 150 -247l-276 -80q-12 89 -68 141t-153 52z" />
    <glyph glyph-name="T" unicode="T" horiz-adv-x="1138" 
d="M369 1481h1056l-51 -238h-387l-276 -1243h-283l277 1243h-388z" />
    <glyph glyph-name="U" unicode="U" horiz-adv-x="1478" 
d="M786 217q147 0 234 74q86 74 125 250l207 938h282l-204 -926q-70 -312 -262 -443q-192 -132 -434 -131t-370 127t-69 447l205 926h282l-207 -938q-39 -176 13 -250t198 -74z" />
    <glyph glyph-name="V" unicode="V" horiz-adv-x="1138" 
d="M412 0l-64 1479h279l20 -1090h4l516 1090h279l-719 -1479h-315z" />
    <glyph glyph-name="W" unicode="W" horiz-adv-x="1705" 
d="M350 0l19 1479h264l-35 -998h4l432 998h291l-27 -998h5l423 998h265l-635 -1479h-287l18 1053h-4l-446 -1053h-287z" />
    <glyph glyph-name="X" unicode="X" horiz-adv-x="1138" 
d="M584 758l-215 721h307l121 -457l321 457h307l-534 -721l231 -758h-307l-135 502l-356 -502h-308z" />
    <glyph glyph-name="Y" unicode="Y" horiz-adv-x="1138" 
d="M643 1479l125 -586l383 586h295l-604 -889l-131 -590h-283l131 590l-211 889h295z" />
    <glyph glyph-name="Z" unicode="Z" horiz-adv-x="1138" 
d="M1139 238l-54 -238h-1052l53 240l911 1001h-643l54 238h999l-49 -226l-940 -1015h721z" />
    <glyph glyph-name="bracketleft" unicode="[" horiz-adv-x="681" 
d="M555 -152h-481l360 1631h477l-26 -123h-256l-307 -1385h260z" />
    <glyph glyph-name="backslash" unicode="\" horiz-adv-x="569" 
d="M399 -20l-125 1519h224l125 -1519h-224z" />
    <glyph glyph-name="bracketright" unicode="]" horiz-adv-x="681" 
d="M543 -152h-482l27 123h260l307 1385h-256l27 123h477z" />
    <glyph glyph-name="asciicircum" unicode="^" horiz-adv-x="1228" 
d="M524 711h-223l539 768h204l199 -768h-225l-127 538z" />
    <glyph glyph-name="underscore" unicode="_" horiz-adv-x="1024" 
d="M967 -256h-1024l22 102h1024z" />
    <glyph glyph-name="grave" unicode="`" horiz-adv-x="569" 
d="M274 1499h316l127 -299h-209z" />
    <glyph glyph-name="a" unicode="a" horiz-adv-x="1024" 
d="M451 168q98 0 258 113l51 229q-282 -50 -356 -126q-36 -38 -49 -94t14 -89t82 -33zM690 897q-139 0 -262 -131l-137 125q69 84 197 140t243 54q219 -4 294 -99t22 -331l-111 -501q-22 -95 -14 -154h-248l4 92q-193 -112 -343 -112t-208 82q-57 83 -33 200q41 180 212 280
t493 138l18 90q14 59 -21 93q-36 34 -106 34z" />
    <glyph glyph-name="b" unicode="b" horiz-adv-x="1138" 
d="M784 881q-106 0 -223 -90l-115 -512q8 -6 31 -31t35 -34q37 -28 111 -30q115 0 195 90t120 258q37 168 -5 258q-43 90 -149 91zM131 0l328 1479h254l-113 -512h4q47 49 132 84t151 34q195 -1 275 -157t36 -367q-58 -258 -204 -420t-351 -161q-150 0 -260 135l-53 -115
h-199z" />
    <glyph glyph-name="c" unicode="c" horiz-adv-x="1024" 
d="M707 881q-209 0 -285 -349q-41 -178 -7 -263q35 -85 157 -85t251 170l170 -108q-109 -140 -223 -204t-262 -62q-215 0 -306 150t-35 402q56 254 213 404t372 149q152 1 248 -75t110 -209l-229 -82q-19 80 -55 121t-119 41z" />
    <glyph glyph-name="d" unicode="d" horiz-adv-x="1138" 
d="M744 881q-108 0 -188 -90q-81 -91 -119 -259t4 -258t157 -90q74 0 115 24t102 71l115 512q-78 90 -186 90zM487 -20q-205 0 -279 162t-18 419q45 211 196 368t345 156q67 -1 137 -35t97 -83h4l112 512h254l-327 -1479h-215l12 115q-166 -135 -318 -135z" />
    <glyph glyph-name="e" unicode="e" horiz-adv-x="1024" 
d="M558 184q89 0 145 31t128 96l158 -114q-188 -217 -493 -217q-207 0 -296 150t-33 402q56 254 213 404t365 150q209 0 293 -143q84 -144 41 -347l-24 -104h-643q-33 -158 12 -233t134 -75zM707 897q-93 0 -161 -61t-95 -172h409q20 111 -20 172q-41 61 -133 61z" />
    <glyph glyph-name="f" unicode="f" horiz-adv-x="681" 
d="M856 1294q-80 0 -117 -26t-51 -88l-26 -115h215l-46 -205h-215l-190 -860h-254l190 860h-147l45 205h146l28 131q37 168 123 236t246 67h168l-45 -205h-70z" />
    <glyph glyph-name="g" unicode="g" horiz-adv-x="1024" 
d="M522 215q176 0 328 -43q74 -20 112 -82t15 -164q-27 -127 -177 -221t-378 -94q-229 -1 -342 65t-86 189q23 94 92 145q70 51 145 51v5q-7 4 -39 22t-48 32t-28 46q-13 31 -3 72q14 68 85 124t124 70q-131 131 -97 283q35 151 170 261t332 109q69 1 137 -25t105 -69
q96 100 270 94l-37 -172q-125 0 -170 -24q41 -82 17 -189q-35 -156 -159 -250t-319 -94q-100 0 -152 -12t-63 -53q-8 -39 40 -57t126 -19zM680 897q-76 0 -139 -50t-79 -125t24 -126t116 -51t138 51t79 125q16 74 -23 125q-40 51 -116 51zM454 20q-104 0 -156 -38t-64 -93
t45 -83t189 -28t198 41q64 40 71 79q13 65 -109 101q-70 21 -174 21z" />
    <glyph glyph-name="h" unicode="h" horiz-adv-x="1138" 
d="M937 1085q151 0 210 -94t22 -262l-161 -729h-254l153 692q23 104 0 146t-90 43q-139 0 -262 -113l-170 -768h-254l328 1479h254l-117 -529q190 135 341 135z" />
    <glyph glyph-name="i" unicode="i" horiz-adv-x="569" 
d="M692 1262h-254l51 237h254zM647 1065l-235 -1065h-254l235 1065h254z" />
    <glyph glyph-name="j" unicode="j" horiz-adv-x="569" 
d="M719 1262h-254l51 237h254zM51 -172q47 0 77 29t48 102l244 1106h254l-254 -1147q-35 -162 -122 -234t-245 -73q-70 0 -129 16l45 207q80 -6 82 -6z" />
    <glyph glyph-name="k" unicode="k" horiz-adv-x="1024" 
d="M385 0h-254l328 1479h254l-183 -826h9l403 412h291l-402 -397l189 -668h-270l-129 477l-164 -149z" />
    <glyph glyph-name="l" unicode="l" horiz-adv-x="569" 
d="M412 0h-254l327 1479h254z" />
    <glyph glyph-name="m" unicode="m" horiz-adv-x="1705" 
d="M385 0h-254l236 1065h231l-25 -115q94 72 170 104q77 32 171 32t156 -42q62 -41 81 -114q188 156 399 155q102 0 166 -73q63 -74 27 -246l-170 -766h-254l164 743q31 131 -97 138q-88 0 -237 -115l-170 -766h-254l164 743q31 131 -96 138q-88 0 -238 -115z" />
    <glyph glyph-name="n" unicode="n" horiz-adv-x="1138" 
d="M943 1085q145 0 204 -94t22 -262l-161 -729h-254l153 692q23 104 0 146t-90 43q-139 0 -262 -113l-170 -768h-254l236 1065h233l-25 -115q223 135 368 135z" />
    <glyph glyph-name="o" unicode="o" horiz-adv-x="1024" 
d="M168 532q55 254 212 404t372 150t306 -150t35 -404t-213 -404t-372 -148q-215 0 -306 149t-34 403zM553 184q209 0 287 348q76 348 -133 349q-209 -1 -286 -349t132 -348z" />
    <glyph glyph-name="p" unicode="p" horiz-adv-x="1138" 
d="M631 184q107 0 187 90t120 258q37 168 -5 258t-157 91q-71 0 -124 -31q-17 -10 -49 -33t-44 -31l-113 -512q78 -90 185 -90zM45 -389l322 1454h243l-20 -98q145 119 297 118q205 -1 279 -161t20 -420q-47 -211 -198 -368t-345 -156q-67 0 -137 34t-94 84h-4l-109 -487
h-254z" />
    <glyph glyph-name="q" unicode="q" horiz-adv-x="1138" 
d="M590 184q108 0 225 90l113 512q-4 4 -29 30t-36 34q-40 29 -111 31q-115 0 -196 -90q-81 -91 -119 -259t4 -258q41 -90 149 -90zM1243 1065l-321 -1454h-254l108 487h-4q-49 -49 -134 -84t-151 -34q-131 0 -215 78q-149 137 -94 446q56 258 202 420t351 161
q150 0 260 -135l53 115h199z" />
    <glyph glyph-name="r" unicode="r" horiz-adv-x="681" 
d="M788 819q-84 -1 -176 -71t-100 -101l-143 -647h-254l235 1065h234l-39 -182h4q137 197 342 202l-60 -268q-10 2 -43 2z" />
    <glyph glyph-name="s" unicode="s" horiz-adv-x="909" 
d="M649 897q-141 0 -166 -104q-10 -49 37 -83t119 -60q73 -26 143 -60t109 -109q39 -74 14 -182q-35 -160 -160 -240t-301 -79q-258 0 -356 215l199 127q78 -154 213 -154q68 0 116 34t60 85t-35 86t-119 61t-142 62q-70 34 -110 106q-39 72 -16 174q33 143 154 226t249 83
q258 0 357 -161l-191 -140q-80 113 -174 113z" />
    <glyph glyph-name="t" unicode="t" horiz-adv-x="681" 
d="M430 -20q-262 0 -209 245l141 635h-147l45 205h148l77 352h254l-77 -352h208l-45 -205h-209l-133 -602q-14 -72 63 -74q36 0 134 21l-45 -209q-143 -16 -205 -16z" />
    <glyph glyph-name="u" unicode="u" horiz-adv-x="1138" 
d="M431 -20q-145 0 -204 94t-22 262l162 729h254l-154 -692q-23 -105 0 -147t90 -42q139 0 262 113l170 768h254l-235 -1065h-234l25 115q-223 -135 -368 -135z" />
    <glyph glyph-name="v" unicode="v" horiz-adv-x="909" 
d="M317 0l-61 1065h254l16 -721h4l340 721h254l-540 -1065h-267z" />
    <glyph glyph-name="w" unicode="w" horiz-adv-x="1366" 
d="M1036 1065v-664h4l299 664h242l-510 -1065h-229l-11 664h-4l-303 -664h-229l-39 1065h242l-2 -664h4l301 664h235z" />
    <glyph glyph-name="x" unicode="x" horiz-adv-x="909" 
d="M8 0l436 553l-188 512h281l84 -295l217 295h274l-412 -512l201 -553h-270l-105 332l-245 -332h-273z" />
    <glyph glyph-name="y" unicode="y" horiz-adv-x="909" 
d="M86 -180q125 0 188 84q57 86 68 125q4 30 0 73q-4 42 -4 54l-84 909h256l31 -655h4l327 655h254l-571 -1067q-135 -227 -237 -307t-261 -80q-63 0 -120 8l45 209q37 -8 104 -8z" />
    <glyph glyph-name="z" unicode="z" horiz-adv-x="909" 
d="M270 860l45 205h789l-39 -180l-664 -680h517l-46 -205h-835l41 180l663 680h-471z" />
    <glyph glyph-name="braceleft" unicode="{" horiz-adv-x="681" 
d="M754 1499h145l-27 -123h-100q-41 0 -70 -30t-38 -72l-86 -389q-23 -99 -70 -149t-135 -70v-4q81 -20 105 -70t1 -150l-86 -389q-10 -43 6 -73t58 -29h100l-29 -123h-145q-119 0 -176 61t-31 183l88 397q14 59 -18 96q-33 37 -96 37l26 123q63 0 112 37q48 37 62 96
l88 397q27 121 112 183t204 61z" />
    <glyph glyph-name="bar" unicode="|" horiz-adv-x="962" 
d="M551 1720h190v-2293h-190v2293z" />
    <glyph glyph-name="braceright" unicode="}" horiz-adv-x="681" 
d="M221 -172h-145l28 123h101q41 0 69 30t39 72l86 389q23 100 70 150t135 70v4q-80 20 -104 69t-2 150l86 389q10 43 -6 73t-58 29h-100l26 123h146q119 0 177 -61t32 -183l-88 -397q-15 -61 17 -97t95 -36l-26 -123q-61 0 -109 -36t-63 -97l-88 -397q-27 -120 -113 -182
t-205 -62z" />
    <glyph glyph-name="asciitilde" unicode="~" horiz-adv-x="1228" 
d="M914 354q-50 0 -83 10q-49 15 -105 52q-123 79 -230 79q-107 1 -203 -147l-31 184q125 176 293 177q82 0 220 -70q137 -70 181 -70q74 0 150 75q25 26 68 73l30 -185q-53 -57 -87 -88q-34 -30 -94 -60q-59 -30 -109 -30z" />
    <glyph glyph-name="uni00A0" unicode="&#xa0;" horiz-adv-x="624" 
 />
    <glyph glyph-name="exclamdown" unicode="&#xa1;" horiz-adv-x="681" 
d="M446 1110h283l-63 -291h-283zM109 -369l270 979h196l-163 -979h-303z" />
    <glyph glyph-name="cent" unicode="&#xa2;" 
d="M969 807l-355 -612q23 -10 66 -11q133 0 262 170l170 -108q-110 -140 -224 -204t-261 -62q-68 0 -127 16l-150 -252h-119l172 297q-94 63 -124 190q-31 127 8 301q55 254 212 404t371 149q72 0 134 -16l124 217h119l-151 -262q115 -72 133 -223l-230 -82q-12 47 -30 88z
M530 258l357 614q-23 8 -62 9q-109 0 -189 -87q-80 -88 -118 -268q-39 -180 12 -268z" />
    <glyph glyph-name="sterling" unicode="&#xa3;" 
d="M807 -20q-137 0 -216 28t-173 98q-143 -133 -316 -126l56 253q106 7 168 93t82 174q18 88 24 143h-194l41 193h165q8 147 31 256q45 199 182 303t349 104t304 -118q91 -118 46 -318h-246q12 106 -21 161q-34 54 -137 54q-246 0 -233 -442h266l-41 -193h-237
q-53 -233 -134 -340q123 -86 226 -86t145 77q33 55 64 152h245q-45 -202 -161 -334t-285 -132z" />
    <glyph glyph-name="currency" unicode="&#xa4;" 
d="M721 436q125 0 225 86t129 217t-33 217t-186 86q-125 0 -225 -86t-129 -217q-30 -131 32 -217t187 -86zM672 219q-160 0 -273 90l-135 -104l-98 131l131 106q-66 137 -29 297t160 297l-82 107l156 131l90 -105q154 91 314 91t272 -91l135 105l98 -131l-131 -107
q66 -137 29 -297t-160 -297l82 -106l-156 -131l-90 104q-153 -90 -313 -90z" />
    <glyph glyph-name="yen" unicode="&#xa5;" 
d="M834 414l-93 -414h-233l92 414h-369l43 192h361l-39 139h-291l43 193h195l-158 541h254l172 -635l457 635h254l-396 -541h193l-43 -193h-289l-102 -139h360l-43 -192h-368z" />
    <glyph glyph-name="brokenbar" unicode="&#xa6;" horiz-adv-x="960" 
d="M551 401h188v-800h-188v800zM551 1548h188v-803h-188v803z" />
    <glyph glyph-name="section" unicode="&#xa7;" horiz-adv-x="1024" 
d="M743 469q39 0 69 23q79 61 1 171q-16 24 -63 89q-102 145 -168 145q-35 1 -67 -23t-41 -64q-10 -40 100 -190t169 -151zM471 -172q-176 0 -289 174l164 109q51 -115 146 -115q121 0 141 98t-122 259q-60 69 -119 140q-141 172 -113 302q20 99 99 165t177 72
q-72 117 -46 228q26 112 116 176t205 64t176 -36q61 -35 120 -129l-165 -112q-66 109 -144 108q-41 -1 -76 -25t-44 -65t29 -102t97 -126t117 -135t90 -155q68 -173 -69 -306q-68 -67 -187 -87q80 -111 51 -237q-29 -125 -129 -195t-225 -70z" />
    <glyph glyph-name="dieresis" unicode="&#xa8;" horiz-adv-x="569" 
d="M680 1458h246l-54 -237h-245zM291 1458h246l-54 -237h-245z" />
    <glyph glyph-name="copyright" unicode="&#xa9;" horiz-adv-x="1638" 
d="M1227 877q4 131 -171 131q-85 0 -155 -70q-69 -70 -95 -186t15 -193q41 -76 135 -76q168 1 215 142h185q-57 -152 -179 -237t-259 -85q-190 0 -282 126q-91 127 -48 319t186 316t336 124q141 0 221 -81t72 -230h-176zM1117 1352q-245 0 -451 -172t-264 -440
q-60 -268 70 -441q130 -172 375 -172t452 173t266 439q59 265 -72 439t-376 174zM815 -20q-154 0 -284 51q-272 107 -336 389q-33 141 6 319q78 344 353 552t597 208q154 0 284 -51q130 -52 217 -150t120 -239t-7 -320q-78 -343 -353 -551t-597 -208z" />
    <glyph glyph-name="ordfeminine" unicode="&#xaa;" horiz-adv-x="614" 
d="M471 967q99 0 152 49l30 137q-88 -14 -137 -32q-86 -33 -100 -97q-14 -57 55 -57zM610 1368q-98 0 -166 -61l-88 75q43 51 126 85t157 32q143 -4 191 -60t18 -198l-66 -301q-14 -55 -6 -92h-172l2 57q-109 -69 -210 -69t-139 49t-21 121q25 109 132 168q108 59 308 81
l10 48q8 33 -11 49t-65 16z" />
    <glyph glyph-name="guillemotleft" unicode="&#xab;" horiz-adv-x="1138" 
d="M657 526l320 334h229l-325 -334l180 -321h-230zM240 526l319 334h229l-325 -334l180 -321h-229z" />
    <glyph glyph-name="logicalnot" unicode="&#xac;" horiz-adv-x="1228" 
d="M969 197l100 450h-844l49 221h1065l-149 -671h-221z" />
    <glyph glyph-name="uni00AD" unicode="&#xad;" horiz-adv-x="681" 
d="M686 422h-502l49 221h502z" />
    <glyph glyph-name="registered" unicode="&#xae;" horiz-adv-x="1638" 
d="M1117 1352q-245 0 -451 -172t-264 -440q-60 -268 70 -441q130 -172 375 -172t452 173t266 439q59 265 -72 439t-376 174zM815 -20q-154 0 -284 51q-272 107 -336 389q-33 141 6 319q78 344 353 552t597 208q154 0 284 -51q130 -52 217 -150t120 -239t-7 -320
q-78 -343 -353 -551t-597 -208zM1028 813q135 0 160 111q12 53 -21 73t-102 21h-150l-45 -205h158zM1079 1157q172 0 244 -57t41 -195q-47 -209 -279 -221l138 -360h-183l-116 350h-84l-78 -350h-180l184 833h313z" />
    <glyph glyph-name="macron" unicode="&#xaf;" horiz-adv-x="569" 
d="M920 1266h-709l33 151h708z" />
    <glyph glyph-name="degree" unicode="&#xb0;" horiz-adv-x="819" 
d="M640 1036q68 0 125 51q58 51 75 119q14 68 -22 119t-104 51t-126 -51t-73 -119t21 -119t104 -51zM612 913q-122 0 -188 85t-39 208t130 208t226 85t190 -85t39 -208t-132 -208t-226 -85z" />
    <glyph glyph-name="plusminus" unicode="&#xb1;" horiz-adv-x="1228" 
d="M82 0l49 221h1065l-49 -221h-1065zM680 795l59 270h222l-60 -270h422l-49 -222h-422l-59 -272h-222l60 272h-422l49 222h422z" />
    <glyph glyph-name="twosuperior" unicode="&#xb2;" horiz-adv-x="749" 
d="M673 1352q-136 0 -206 -138l-145 31q40 111 148 183t239 71t207 -69t48 -188q-27 -120 -128 -202t-231 -166q-130 -83 -193 -129h442l-33 -147h-647l33 147q37 83 297 239q96 58 181 127t95 120q29 121 -107 121z" />
    <glyph glyph-name="threesuperior" unicode="&#xb3;" horiz-adv-x="749" 
d="M700 1499q137 0 208 -59t46 -168q-31 -137 -186 -191v-4q164 -47 125 -223q-29 -129 -145 -199q-116 -69 -238 -69t-204 48q-81 48 -109 138l153 72q51 -111 178 -111q66 0 120 36t66 86q20 85 -33 114q-52 30 -110 32q-57 3 -102 3l29 135q246 0 270 112q10 43 -18 71
q-29 28 -88 30q-98 -2 -203 -88l-94 98q160 137 335 137z" />
    <glyph glyph-name="acute" unicode="&#xb4;" horiz-adv-x="569" 
d="M643 1499h315l-364 -299h-209z" />
    <glyph glyph-name="mu" unicode="&#xb5;" horiz-adv-x="1138" 
d="M442 -20q-25 0 -61 4l-82 -373h-254l322 1454h254l-154 -692q-23 -105 0 -147t90 -42q139 0 262 113l170 768h254l-235 -1065h-234l25 115q-223 -135 -357 -135z" />
    <glyph glyph-name="paragraph" unicode="&#xb6;" horiz-adv-x="1269" 
d="M803 1479h725l-39 -172h-150l-319 -1446h-209l319 1446h-182l-319 -1446h-209l198 895q-182 0 -273 96t-54 258q84 369 512 369z" />
    <glyph glyph-name="periodcentered" unicode="&#xb7;" horiz-adv-x="624" 
d="M460 688q64 0 102 -46t24 -112q-14 -64 -72 -108t-122 -45q-64 0 -99 45t-20 109q15 65 69 111t118 46z" />
    <glyph glyph-name="cedilla" unicode="&#xb8;" horiz-adv-x="569" 
d="M218 -213q-34 0 -95 -12l-33 41l162 184h108l-116 -129q45 10 75 10q76 0 119 -40q43 -41 25 -125q-17 -84 -109 -134t-187 -51q-95 0 -216 53l55 86q88 -32 148 -32t91 18q30 18 39 62q8 44 -12 56q-20 13 -54 13z" />
    <glyph glyph-name="onesuperior" unicode="&#xb9;" horiz-adv-x="749" 
d="M756 598h-469l28 135h138l131 590h-158l27 115q147 6 221 61h137l-170 -766h143z" />
    <glyph glyph-name="ordmasculine" unicode="&#xba;" horiz-adv-x="614" 
d="M638 1499q140 0 200 -89t26 -243q-35 -155 -134 -243t-239 -88t-201 88t-26 243q35 154 134 243q100 89 240 89zM609 1368q-124 0 -167 -201t80 -200q125 -1 166 200q45 201 -79 201z" />
    <glyph glyph-name="guillemotright" unicode="&#xbb;" horiz-adv-x="1138" 
d="M717 539l-320 -334h-229l326 334l-181 321h230zM1135 539l-320 -334h-229l325 334l-180 321h230z" />
    <glyph glyph-name="onequarter" unicode="&#xbc;" horiz-adv-x="1875" 
d="M776 598h-469l29 135h137l131 590h-158l27 115q147 6 221 61h137l-169 -766h143zM428 -20l1182 1519h180l-1180 -1519h-182zM1130 205l39 172l506 512h211l-121 -549h129l-30 -135h-129l-45 -205h-189l45 205h-416zM1577 340l80 360h-4l-336 -360h260z" />
    <glyph glyph-name="onehalf" unicode="&#xbd;" horiz-adv-x="1875" 
d="M1588 754q-136 0 -204 -138l-147 31q41 111 149 183t240 71q131 1 206 -67t48 -189t-140 -214q-71 -59 -210 -149q-139 -89 -203 -135h442l-32 -147h-647l32 147q36 81 295 238t281 248q26 121 -110 121zM776 598h-469l29 135h137l131 590h-158l27 115q147 6 221 61h137
l-169 -766h143zM395 -20l1182 1519h180l-1179 -1519h-183z" />
    <glyph glyph-name="threequarters" unicode="&#xbe;" horiz-adv-x="1875" 
d="M1577 340l80 360h-4l-336 -360h260zM1130 205l39 172l506 512h211l-121 -549h129l-30 -135h-129l-45 -205h-189l45 205h-416zM457 -20l1181 1519h181l-1180 -1519h-182zM733 1499q137 0 208 -59t46 -168q-31 -137 -186 -191v-4q164 -47 125 -223q-29 -129 -145 -199
q-117 -69 -239 -69t-203 48t-110 138l154 72q51 -111 178 -111q66 0 120 36q53 36 65 86q19 83 -33 114q-52 30 -109 33q-57 2 -102 2l28 135q246 0 271 112q10 43 -19 71t-88 30q-98 -2 -202 -88l-95 98q160 137 336 137z" />
    <glyph glyph-name="questiondown" unicode="&#xbf;" horiz-adv-x="909" 
d="M604 1110h283l-64 -291h-282zM384 -389q-161 0 -249 87t-53 241q24 110 124 221q34 37 98 96t92 87t65 84t49 110l16 75h226l-25 -112q-29 -127 -199 -310q-6 -6 -25 -28t-25 -27q-60 -55 -97 -113t-45 -99q-8 -42 24 -75q32 -32 90 -32q60 0 118 54t85 126l219 -66
q-72 -152 -200 -236t-288 -83z" />
    <glyph glyph-name="Agrave" unicode="&#xc0;" 
d="M696 1860h316l127 -299h-209zM27 0l753 1481h353l92 -1481h-281l-10 319h-467l-160 -319h-280zM895 1196l-315 -643h344l-25 643h-4z" />
    <glyph glyph-name="Aacute" unicode="&#xc1;" 
d="M1065 1860h315l-364 -299h-209zM27 0l753 1481h353l92 -1481h-281l-10 319h-467l-160 -319h-280zM895 1196l-315 -643h344l-25 643h-4z" />
    <glyph glyph-name="Acircumflex" unicode="&#xc2;" 
d="M909 1860h254l170 -299h-231l-92 168l-168 -168h-230zM27 0l753 1481h353l92 -1481h-281l-10 319h-467l-160 -319h-280zM895 1196l-315 -643h344l-25 643h-4z" />
    <glyph glyph-name="Atilde" unicode="&#xc3;" 
d="M1126 1589q-53 0 -149 36t-135 36q-66 0 -113 -84h-127q37 104 113 177t176 73q61 0 152 -38t122 -38q31 -1 63 25t48 63h133q-109 -250 -283 -250zM27 0l753 1481h353l92 -1481h-281l-10 319h-467l-160 -319h-280zM895 1196l-315 -643h344l-25 643h-4z" />
    <glyph glyph-name="Adieresis" unicode="&#xc4;" 
d="M1102 1819h246l-54 -238h-245zM713 1819h245l-53 -238h-246zM27 0l753 1481h353l92 -1481h-281l-10 319h-467l-160 -319h-280zM895 1196l-315 -643h344l-25 643h-4z" />
    <glyph glyph-name="Aring" unicode="&#xc5;" 
d="M996 1669q46 0 86 32t51 79q10 47 -16 79q-25 31 -71 31t-87 -32q-40 -33 -49 -78t16 -78q24 -33 70 -33zM1071 2001q92 0 142 -65q51 -64 29 -156t-100 -157t-169 -65q-92 0 -143 65q-49 65 -29 157t99 156t171 65zM27 0l753 1481h353l92 -1481h-281l-10 319h-467
l-160 -319h-280zM895 1196l-315 -643h344l-25 643h-4z" />
    <glyph glyph-name="AE" unicode="&#xc6;" horiz-adv-x="1933" 
d="M725 584h334l153 690h-4zM315 0h-301l1071 1479h1076l-54 -238h-620l-78 -352h430l-53 -238h-430l-90 -413h643l-54 -238h-925l76 346h-451z" />
    <glyph glyph-name="Ccedilla" unicode="&#xc7;" 
d="M928 1262q-143 0 -253 -134t-167 -389q-117 -522 194 -522q98 0 174 46q75 46 164 173l248 -69q-203 -360 -583 -385l-101 -111q45 10 76 10q76 0 119 -40q43 -41 25 -125t-110 -134q-90 -50 -186 -51q-96 0 -217 53l56 86q161 -60 238 -14q30 18 39 62t-11 56
q-21 13 -55 13t-95 -12l-32 41l145 166q-252 20 -349 217t-19 549t277 552q200 199 482 199q416 0 430 -389l-268 -61q-25 213 -221 213z" />
    <glyph glyph-name="Egrave" unicode="&#xc8;" 
d="M735 1860h316l127 -299h-209zM1174 0h-1002l328 1479h979l-54 -238h-696l-78 -352h506l-53 -238h-506l-90 -413h719z" />
    <glyph glyph-name="Eacute" unicode="&#xc9;" 
d="M1104 1860h315l-364 -299h-209zM1174 0h-1002l328 1479h979l-54 -238h-696l-78 -352h506l-53 -238h-506l-90 -413h719z" />
    <glyph glyph-name="Ecircumflex" unicode="&#xca;" 
d="M948 1860h254l170 -299h-231l-92 168l-168 -168h-230zM1174 0h-1002l328 1479h979l-54 -238h-696l-78 -352h506l-53 -238h-506l-90 -413h719z" />
    <glyph glyph-name="Edieresis" unicode="&#xcb;" 
d="M1141 1819h245l-53 -238h-246zM752 1819h245l-53 -238h-246zM1174 0h-1002l328 1479h979l-54 -238h-696l-78 -352h506l-53 -238h-506l-90 -413h719z" />
    <glyph glyph-name="Igrave" unicode="&#xcc;" horiz-adv-x="681" 
d="M406 1860h315l127 -299h-209zM481 0h-282l327 1479h283z" />
    <glyph glyph-name="Iacute" unicode="&#xcd;" horiz-adv-x="681" 
d="M774 1860h316l-365 -299h-209zM481 0h-282l327 1479h283z" />
    <glyph glyph-name="Icircumflex" unicode="&#xce;" horiz-adv-x="681" 
d="M618 1860h254l170 -299h-231l-92 168l-168 -168h-229zM481 0h-282l327 1479h283z" />
    <glyph glyph-name="Idieresis" unicode="&#xcf;" horiz-adv-x="681" 
d="M811 1819h246l-53 -238h-246zM422 1819h246l-54 -238h-245zM481 0h-282l327 1479h283z" />
    <glyph glyph-name="Eth" unicode="&#xd0;" horiz-adv-x="1366" 
d="M684 238q233 0 348 146t162 355q113 502 -289 502h-188l-78 -352h305l-55 -254h-305l-88 -397h188zM977 1479q307 1 444 -181t56 -559q-86 -377 -303 -558t-525 -181h-489l141 635h-137l55 254h137l131 590h490z" />
    <glyph glyph-name="Ntilde" unicode="&#xd1;" horiz-adv-x="1478" 
d="M1239 1589q-53 0 -149 36t-136 36q-66 0 -112 -84h-127q37 104 112 177q76 73 177 73q61 0 152 -38t122 -38q31 -1 63 25t48 63h133q-109 -250 -283 -250zM432 0h-266l328 1479h294l359 -1008h4l223 1008h266l-327 -1479h-273l-370 1053h-4z" />
    <glyph glyph-name="Ograve" unicode="&#xd2;" horiz-adv-x="1366" 
d="M754 1860h315l127 -299h-209zM1466 739q-80 -365 -284 -563t-504 -196q-301 0 -417 198t-36 562t284 562t505 198t417 -198q115 -198 35 -563zM728 217q341 0 456 522t-221 523q-340 0 -455 -523q-121 -522 220 -522z" />
    <glyph glyph-name="Oacute" unicode="&#xd3;" horiz-adv-x="1366" 
d="M1122 1860h316l-365 -299h-209zM1466 739q-80 -365 -284 -563t-504 -196q-301 0 -417 198t-36 562t284 562t505 198t417 -198q115 -198 35 -563zM728 217q341 0 456 522t-221 523q-340 0 -455 -523q-121 -522 220 -522z" />
    <glyph glyph-name="Ocircumflex" unicode="&#xd4;" horiz-adv-x="1366" 
d="M967 1860h254l170 -299h-232l-92 168l-168 -168h-229zM1466 739q-80 -365 -284 -563t-504 -196q-301 0 -417 198t-36 562t284 562t505 198t417 -198q115 -198 35 -563zM728 217q341 0 456 522t-221 523q-340 0 -455 -523q-121 -522 220 -522z" />
    <glyph glyph-name="Otilde" unicode="&#xd5;" horiz-adv-x="1366" 
d="M1184 1589q-54 0 -150 36t-135 36q-66 0 -113 -84h-127q37 104 113 177t176 73q60 0 152 -38t123 -38q31 -1 63 25t47 63h133q-109 -250 -282 -250zM1466 739q-80 -365 -284 -563t-504 -196q-301 0 -417 198t-36 562t284 562t505 198t417 -198q115 -198 35 -563zM728 217
q341 0 456 522t-221 523q-340 0 -455 -523q-121 -522 220 -522z" />
    <glyph glyph-name="Odieresis" unicode="&#xd6;" horiz-adv-x="1366" 
d="M1159 1819h246l-53 -238h-246zM770 1819h246l-53 -238h-246zM1466 739q-80 -365 -284 -563t-504 -196q-301 0 -417 198t-36 562t284 562t505 198t417 -198q115 -198 35 -563zM728 217q341 0 456 522t-221 523q-340 0 -455 -523q-121 -522 220 -522z" />
    <glyph glyph-name="multiply" unicode="&#xd7;" horiz-adv-x="1228" 
d="M698 377l-458 -377l-123 160l458 375l-292 374l192 156l293 -373l457 373l123 -156l-457 -374l291 -375l-193 -160z" />
    <glyph glyph-name="Oslash" unicode="&#xd8;" horiz-adv-x="1366" 
d="M1690 1561l-248 -279q102 -196 23 -552t-283 -554t-504 -196q-203 0 -318 88l-180 -203h-233l301 338q-100 195 -22 548t283 551q204 198 505 197q195 0 311 -86l129 148h236zM477 463l660 741q-59 57 -174 58q-340 0 -455 -523q-39 -176 -31 -276zM1210 1022l-661 -743
q63 -61 180 -62q340 0 455 522q38 179 26 283z" />
    <glyph glyph-name="Ugrave" unicode="&#xd9;" horiz-adv-x="1478" 
d="M803 1860h315l127 -299h-209zM786 217q147 0 234 74q86 74 125 250l207 938h282l-204 -926q-70 -312 -262 -443q-192 -132 -434 -131t-370 127t-69 447l205 926h282l-207 -938q-39 -176 13 -250t198 -74z" />
    <glyph glyph-name="Uacute" unicode="&#xda;" horiz-adv-x="1478" 
d="M1171 1860h316l-365 -299h-209zM786 217q147 0 234 74q86 74 125 250l207 938h282l-204 -926q-70 -312 -262 -443q-192 -132 -434 -131t-370 127t-69 447l205 926h282l-207 -938q-39 -176 13 -250t198 -74z" />
    <glyph glyph-name="Ucircumflex" unicode="&#xdb;" horiz-adv-x="1478" 
d="M1016 1860h254l170 -299h-232l-92 168l-168 -168h-229zM786 217q147 0 234 74q86 74 125 250l207 938h282l-204 -926q-70 -312 -262 -443q-192 -132 -434 -131t-370 127t-69 447l205 926h282l-207 -938q-39 -176 13 -250t198 -74z" />
    <glyph glyph-name="Udieresis" unicode="&#xdc;" horiz-adv-x="1478" 
d="M1208 1819h246l-53 -238h-246zM819 1819h246l-53 -238h-246zM786 217q147 0 234 74q86 74 125 250l207 938h282l-204 -926q-70 -312 -262 -443q-192 -132 -434 -131t-370 127t-69 447l205 926h282l-207 -938q-39 -176 13 -250t198 -74z" />
    <glyph glyph-name="Yacute" unicode="&#xdd;" horiz-adv-x="1138" 
d="M1008 1860h315l-365 -299h-208zM643 1479l125 -586l383 586h295l-604 -889l-131 -590h-283l131 590l-211 889h295z" />
    <glyph glyph-name="Thorn" unicode="&#xde;" 
d="M770 555q152 0 224 53q72 54 96 158q22 104 -26 158t-200 53h-225l-94 -422h225zM948 1206q248 0 361 -108t63 -332q-50 -223 -211 -332q-162 -109 -409 -108h-258l-72 -326h-283l328 1479h283l-60 -273h258z" />
    <glyph glyph-name="germandbls" unicode="&#xdf;" horiz-adv-x="1024" 
d="M612 -20q-35 0 -84 14t-71 35l102 180q39 -25 86 -25q125 0 176 234q61 270 -125 270h-53l47 205h33q123 1 165 191t-110 190q-131 0 -168 -156l-248 -1118h-253l249 1126q35 158 155 255q121 97 313 97t272 -94q80 -96 43 -266q-25 -116 -75 -188t-148 -115v-4
q106 -33 150 -134t5 -271q-51 -230 -168 -328t-293 -98z" />
    <glyph glyph-name="agrave" unicode="&#xe0;" horiz-adv-x="1024" 
d="M502 1499h315l127 -299h-209zM451 168q98 0 258 113l51 229q-282 -50 -356 -126q-36 -38 -49 -94t14 -89t82 -33zM690 897q-139 0 -262 -131l-137 125q69 84 197 140t243 54q219 -4 294 -99t22 -331l-111 -501q-22 -95 -14 -154h-248l4 92q-193 -112 -343 -112t-208 82
q-57 83 -33 200q41 180 212 280t493 138l18 90q14 59 -21 93q-36 34 -106 34z" />
    <glyph glyph-name="aacute" unicode="&#xe1;" horiz-adv-x="1024" 
d="M870 1499h316l-365 -299h-209zM451 168q98 0 258 113l51 229q-282 -50 -356 -126q-36 -38 -49 -94t14 -89t82 -33zM690 897q-139 0 -262 -131l-137 125q69 84 197 140t243 54q219 -4 294 -99t22 -331l-111 -501q-22 -95 -14 -154h-248l4 92q-193 -112 -343 -112t-208 82
q-57 83 -33 200q41 180 212 280t493 138l18 90q14 59 -21 93q-36 34 -106 34z" />
    <glyph glyph-name="acircumflex" unicode="&#xe2;" horiz-adv-x="1024" 
d="M715 1499h254l170 -299h-232l-92 168l-168 -168h-229zM451 168q98 0 258 113l51 229q-282 -50 -356 -126q-36 -38 -49 -94t14 -89t82 -33zM690 897q-139 0 -262 -131l-137 125q69 84 197 140t243 54q219 -4 294 -99t22 -331l-111 -501q-22 -95 -14 -154h-248l4 92
q-193 -112 -343 -112t-208 82q-57 83 -33 200q41 180 212 280t493 138l18 90q14 59 -21 93q-36 34 -106 34z" />
    <glyph glyph-name="atilde" unicode="&#xe3;" horiz-adv-x="1024" 
d="M932 1229q-54 0 -150 36t-135 35q-66 0 -112 -83h-127q37 104 112 177q76 73 176 72q60 0 152 -38t123 -38t63 26t47 63h133q-109 -250 -282 -250zM451 168q98 0 258 113l51 229q-282 -50 -356 -126q-36 -38 -49 -94t14 -89t82 -33zM690 897q-139 0 -262 -131l-137 125
q69 84 197 140t243 54q219 -4 294 -99t22 -331l-111 -501q-22 -95 -14 -154h-248l4 92q-193 -112 -343 -112t-208 82q-57 83 -33 200q41 180 212 280t493 138l18 90q14 59 -21 93q-36 34 -106 34z" />
    <glyph glyph-name="adieresis" unicode="&#xe4;" horiz-adv-x="1024" 
d="M907 1458h246l-53 -237h-246zM518 1458h246l-53 -237h-246zM451 168q98 0 258 113l51 229q-282 -50 -356 -126q-36 -38 -49 -94t14 -89t82 -33zM690 897q-139 0 -262 -131l-137 125q69 84 197 140t243 54q219 -4 294 -99t22 -331l-111 -501q-22 -95 -14 -154h-248l4 92
q-193 -112 -343 -112t-208 82q-57 83 -33 200q41 180 212 280t493 138l18 90q14 59 -21 93q-36 34 -106 34z" />
    <glyph glyph-name="aring" unicode="&#xe5;" horiz-adv-x="1024" 
d="M851 1530q-46 0 -86 -33t-49 -78q-8 -45 16 -78t70 -33t86 32t50 79t-15 79q-26 32 -72 32zM778 1198q-92 0 -142 64t-30 157q20 92 100 157q80 64 171 64q92 0 142 -64q51 -64 29 -157t-100 -157t-170 -64zM451 168q98 0 258 113l51 229q-282 -50 -356 -126
q-36 -38 -49 -94t14 -89t82 -33zM690 897q-139 0 -262 -131l-137 125q69 84 197 140t243 54q219 -4 294 -99t22 -331l-111 -501q-22 -95 -14 -154h-248l4 92q-193 -112 -343 -112t-208 82q-57 83 -33 200q41 180 212 280t493 138l18 90q14 59 -21 93q-36 34 -106 34z" />
    <glyph glyph-name="ae" unicode="&#xe6;" horiz-adv-x="1593" 
d="M1085 -20q-227 0 -297 165q-162 -100 -265 -133t-201 -32q-137 0 -195 82q-57 83 -33 200q41 180 213 280t500 138l18 90q14 59 -25 93q-40 34 -110 34q-139 0 -262 -131l-137 125q69 84 197 140t243 54q221 -6 285 -114q133 115 313 114q209 2 297 -141t43 -348
l-24 -104h-648l-22 -107q-20 -90 29 -145q49 -56 140 -56t148 31t129 96l158 -114q-188 -217 -494 -217zM1294 897q-94 0 -162 -61t-96 -172h414q20 111 -20 172q-42 61 -136 61zM451 168q86 0 266 113l51 229q-291 -51 -364 -126q-36 -38 -49 -94t14 -89t82 -33z" />
    <glyph glyph-name="ccedilla" unicode="&#xe7;" horiz-adv-x="1024" 
d="M707 881q-209 0 -285 -349q-41 -178 -7 -263q35 -85 157 -85t251 170l170 -108q-186 -244 -422 -264l-100 -111q45 10 76 10q76 0 119 -40q42 -41 24 -125t-109 -134t-187 -51q-96 0 -216 53l55 86q89 -32 149 -32t90 18t39 62t-11 56q-20 13 -54 13t-96 -12l-33 41
l146 166q-193 16 -271 163t-23 394q54 247 211 397t372 149q152 1 248 -75t110 -209l-229 -82q-19 80 -55 121t-119 41z" />
    <glyph glyph-name="egrave" unicode="&#xe8;" horiz-adv-x="1024" 
d="M502 1499h315l127 -299h-209zM558 184q89 0 145 31t128 96l158 -114q-188 -217 -493 -217q-207 0 -296 150t-33 402q56 254 213 404t365 150q209 0 293 -143q84 -144 41 -347l-24 -104h-643q-33 -158 12 -233t134 -75zM707 897q-93 0 -161 -61t-95 -172h409
q20 111 -20 172q-41 61 -133 61z" />
    <glyph glyph-name="eacute" unicode="&#xe9;" horiz-adv-x="1024" 
d="M870 1499h316l-365 -299h-209zM558 184q89 0 145 31t128 96l158 -114q-188 -217 -493 -217q-207 0 -296 150t-33 402q56 254 213 404t365 150q209 0 293 -143q84 -144 41 -347l-24 -104h-643q-33 -158 12 -233t134 -75zM707 897q-93 0 -161 -61t-95 -172h409
q20 111 -20 172q-41 61 -133 61z" />
    <glyph glyph-name="ecircumflex" unicode="&#xea;" horiz-adv-x="1024" 
d="M715 1499h254l170 -299h-232l-92 168l-168 -168h-229zM558 184q89 0 145 31t128 96l158 -114q-188 -217 -493 -217q-207 0 -296 150t-33 402q56 254 213 404t365 150q209 0 293 -143q84 -144 41 -347l-24 -104h-643q-33 -158 12 -233t134 -75zM707 897q-93 0 -161 -61
t-95 -172h409q20 111 -20 172q-41 61 -133 61z" />
    <glyph glyph-name="edieresis" unicode="&#xeb;" horiz-adv-x="1024" 
d="M907 1458h246l-53 -237h-246zM518 1458h246l-53 -237h-246zM558 184q89 0 145 31t128 96l158 -114q-188 -217 -493 -217q-207 0 -296 150t-33 402q56 254 213 404t365 150q209 0 293 -143q84 -144 41 -347l-24 -104h-643q-33 -158 12 -233t134 -75zM707 897
q-93 0 -161 -61t-95 -172h409q20 111 -20 172q-41 61 -133 61z" />
    <glyph glyph-name="igrave" unicode="&#xec;" horiz-adv-x="569" 
d="M279 1499h315l127 -299h-209zM647 1065l-235 -1065h-254l235 1065h254z" />
    <glyph glyph-name="iacute" unicode="&#xed;" horiz-adv-x="569" 
d="M647 1499h316l-365 -299h-209zM647 1065l-235 -1065h-254l235 1065h254z" />
    <glyph glyph-name="icircumflex" unicode="&#xee;" horiz-adv-x="569" 
d="M492 1499h253l170 -299h-231l-92 168l-168 -168h-229zM647 1065l-235 -1065h-254l235 1065h254z" />
    <glyph glyph-name="idieresis" unicode="&#xef;" horiz-adv-x="569" 
d="M684 1458h246l-53 -237h-246zM295 1458h246l-54 -237h-245zM647 1065l-235 -1065h-254l235 1065h254z" />
    <glyph glyph-name="eth" unicode="&#xf0;" horiz-adv-x="1024" 
d="M508 -20q-213 0 -306 144t-42 376t208 376t369 144q43 0 84 -10q-14 78 -51 151l-231 -100l-45 131l206 90q-34 53 -104 127l235 70q43 -37 93 -99l227 99l45 -131l-201 -88q84 -162 109 -365t-19 -395q-51 -233 -207 -377q-157 -143 -370 -143zM553 184q209 0 279 316
t-140 315q-208 1 -278 -315t139 -316z" />
    <glyph glyph-name="ntilde" unicode="&#xf1;" horiz-adv-x="1138" 
d="M979 1229q-53 0 -149 36t-136 35q-66 0 -112 -83h-127q37 104 112 177q76 73 176 72q61 0 153 -38t122 -38t62 26t48 63h134q-109 -250 -283 -250zM943 1085q145 0 204 -94t22 -262l-161 -729h-254l153 692q23 104 0 146t-90 43q-139 0 -262 -113l-170 -768h-254
l236 1065h233l-25 -115q223 135 368 135z" />
    <glyph glyph-name="ograve" unicode="&#xf2;" horiz-adv-x="1024" 
d="M496 1499h315l127 -299h-209zM168 532q55 254 212 404t372 150t306 -150t35 -404t-213 -404t-372 -148q-215 0 -306 149t-34 403zM553 184q209 0 287 348q76 348 -133 349q-209 -1 -286 -349t132 -348z" />
    <glyph glyph-name="oacute" unicode="&#xf3;" horiz-adv-x="1024" 
d="M864 1499h316l-365 -299h-209zM168 532q55 254 212 404t372 150t306 -150t35 -404t-213 -404t-372 -148q-215 0 -306 149t-34 403zM553 184q209 0 287 348q76 348 -133 349q-209 -1 -286 -349t132 -348z" />
    <glyph glyph-name="ocircumflex" unicode="&#xf4;" horiz-adv-x="1024" 
d="M709 1499h254l170 -299h-232l-92 168l-168 -168h-229zM168 532q55 254 212 404t372 150t306 -150t35 -404t-213 -404t-372 -148q-215 0 -306 149t-34 403zM553 184q209 0 287 348q76 348 -133 349q-209 -1 -286 -349t132 -348z" />
    <glyph glyph-name="otilde" unicode="&#xf5;" horiz-adv-x="1024" 
d="M926 1229q-54 0 -150 36t-135 35q-66 0 -113 -83h-127q37 104 113 177t176 72q60 0 152 -38t123 -38t63 26t47 63h133q-109 -250 -282 -250zM168 532q55 254 212 404t372 150t306 -150t35 -404t-213 -404t-372 -148q-215 0 -306 149t-34 403zM553 184q209 0 287 348
q76 348 -133 349q-209 -1 -286 -349t132 -348z" />
    <glyph glyph-name="odieresis" unicode="&#xf6;" horiz-adv-x="1024" 
d="M901 1458h246l-53 -237h-246zM512 1458h246l-53 -237h-246zM168 532q55 254 212 404t372 150t306 -150t35 -404t-213 -404t-372 -148q-215 0 -306 149t-34 403zM553 184q209 0 287 348q76 348 -133 349q-209 -1 -286 -349t132 -348z" />
    <glyph glyph-name="divide" unicode="&#xf7;" horiz-adv-x="1228" 
d="M606 -37q-72 0 -114 56t-25 124q14 68 81 125q66 58 138 58t114 -56t28 -127q-15 -70 -83 -125q-67 -55 -139 -55zM639 920q14 68 81 124q66 56 138 58q72 0 114 -56t28 -126t-82 -125t-140 -55t-114 56t-25 124zM1241 422h-1065l49 221h1065z" />
    <glyph glyph-name="oslash" unicode="&#xf8;" horiz-adv-x="1024" 
d="M707 881q-209 0 -285 -349q-25 -114 -23 -186l398 512q-39 23 -90 23zM332 14l-170 -219h-187l242 314q-113 150 -49 423q55 254 212 404t372 149q113 0 188 -41l162 209h186l-235 -305q100 -152 42 -411t-215 -409t-372 -148q-100 -1 -176 34zM860 700l-385 -499
q33 -16 78 -17q209 0 287 348q20 94 20 168z" />
    <glyph glyph-name="ugrave" unicode="&#xf9;" horiz-adv-x="1138" 
d="M559 1499h315l127 -299h-208zM431 -20q-145 0 -204 94t-22 262l162 729h254l-154 -692q-23 -105 0 -147t90 -42q139 0 262 113l170 768h254l-235 -1065h-234l25 115q-223 -135 -368 -135z" />
    <glyph glyph-name="uacute" unicode="&#xfa;" horiz-adv-x="1138" 
d="M928 1499h315l-364 -299h-209zM431 -20q-145 0 -204 94t-22 262l162 729h254l-154 -692q-23 -105 0 -147t90 -42q139 0 262 113l170 768h254l-235 -1065h-234l25 115q-223 -135 -368 -135z" />
    <glyph glyph-name="ucircumflex" unicode="&#xfb;" horiz-adv-x="1138" 
d="M772 1499h254l170 -299h-231l-93 168l-167 -168h-230zM431 -20q-145 0 -204 94t-22 262l162 729h254l-154 -692q-23 -105 0 -147t90 -42q139 0 262 113l170 768h254l-235 -1065h-234l25 115q-223 -135 -368 -135z" />
    <glyph glyph-name="udieresis" unicode="&#xfc;" horiz-adv-x="1138" 
d="M965 1458h245l-53 -237h-246zM575 1458h246l-53 -237h-246zM431 -20q-145 0 -204 94t-22 262l162 729h254l-154 -692q-23 -105 0 -147t90 -42q139 0 262 113l170 768h254l-235 -1065h-234l25 115q-223 -135 -368 -135z" />
    <glyph glyph-name="yacute" unicode="&#xfd;" horiz-adv-x="909" 
d="M813 1499h315l-364 -299h-209zM86 -180q125 0 188 84q57 86 68 125q4 30 0 73q-4 42 -4 54l-84 909h256l31 -655h4l327 655h254l-571 -1067q-135 -227 -237 -307t-261 -80q-63 0 -120 8l45 209q37 -8 104 -8z" />
    <glyph glyph-name="thorn" unicode="&#xfe;" horiz-adv-x="1138" 
d="M631 184q107 0 187 90t120 258q37 168 -5 258t-157 91q-71 0 -124 -31q-17 -10 -49 -33t-44 -31l-113 -512q78 -90 185 -90zM45 -389l414 1868h243l-112 -512q145 119 297 118q205 -1 279 -161t20 -420q-47 -211 -198 -368t-345 -156q-67 0 -137 34t-94 84h-4l-109 -487
h-254z" />
    <glyph glyph-name="ydieresis" unicode="&#xff;" horiz-adv-x="909" 
d="M850 1458h246l-54 -237h-245zM461 1458h246l-54 -237h-245zM86 -180q125 0 188 84q57 86 68 125q4 30 0 73q-4 42 -4 54l-84 909h256l31 -655h4l327 655h254l-571 -1067q-135 -227 -237 -307t-261 -80q-63 0 -120 8l45 209q37 -8 104 -8z" />
    <glyph glyph-name="dotlessi" unicode="&#x131;" horiz-adv-x="569" 
d="M647 1065l-235 -1065h-254l235 1065h254z" />
    <glyph glyph-name="Lslash" unicode="&#x141;" horiz-adv-x="1138" 
d="M600 709l-104 -471h643l-54 -238h-925l131 594l-174 -66l45 205l174 66l151 680h283l-125 -566l352 131l-45 -204z" />
    <glyph glyph-name="lslash" unicode="&#x142;" horiz-adv-x="569" 
d="M584 776l-172 -776h-254l143 649l-174 -80l45 205l174 80l139 625h254l-110 -498l176 80l-45 -205z" />
    <glyph glyph-name="OE" unicode="&#x152;" horiz-adv-x="1933" 
d="M1059 0q-78 0 -206 -10t-157 -10q-350 0 -470 190t-36 570t288 570t554 189l320 -20h825l-53 -238h-627l-78 -352h443l-54 -238h-442l-90 -413h661l-53 -238h-825zM936 1262q-256 0 -378 -255q-50 -109 -82 -253q-59 -268 -20 -390q17 -56 56 -90t84 -46q45 -11 106 -11
q158 0 238 69t121 259l86 389q41 192 -6 260t-205 68z" />
    <glyph glyph-name="oe" unicode="&#x153;" horiz-adv-x="1593" 
d="M1180 184q66 0 118 31t123 96l158 -114q-188 -217 -461 -217q-201 0 -282 141q-140 -141 -356 -141t-305 150t-33 402q56 254 211 404t369 150t294 -138q137 137 333 138q195 1 279 -143t41 -347l-24 -104h-623q-33 -164 5 -236t153 -72zM1307 897q-87 0 -153 -62
t-93 -171h389q20 109 -18 171q-39 62 -125 62zM520 184q201 0 279 348q76 348 -125 349q-201 -1 -278 -349t124 -348z" />
    <glyph glyph-name="Scaron" unicode="&#x160;" 
d="M1098 1561h-254l-166 299h229l94 -168l166 168h232zM877 1278q-211 0 -246 -164q-17 -70 51 -121t170 -92t202 -92t158 -146q57 -95 29 -229q-49 -225 -209 -340t-409 -114q-184 0 -317 95q-132 95 -159 255l256 102q31 -113 93 -172t178 -59q248 0 293 196
q14 68 -31 121t-122 86t-166 76t-164 89t-112 128q-38 82 -16 188q43 191 206 303q164 112 354 112t308 -88q118 -87 150 -247l-276 -80q-12 89 -68 141t-153 52z" />
    <glyph glyph-name="scaron" unicode="&#x161;" horiz-adv-x="909" 
d="M846 1200h-254l-166 299h229l95 -168l165 168h232zM649 897q-141 0 -166 -104q-10 -49 37 -83t119 -60q73 -26 143 -60t109 -109q39 -74 14 -182q-35 -160 -160 -240t-301 -79q-258 0 -356 215l199 127q78 -154 213 -154q68 0 116 34t60 85t-35 86t-119 61t-142 62
q-70 34 -110 106q-39 72 -16 174q33 143 154 226t249 83q258 0 357 -161l-191 -140q-80 113 -174 113z" />
    <glyph glyph-name="Ydieresis" unicode="&#x178;" horiz-adv-x="1138" 
d="M1044 1819h246l-53 -238h-246zM655 1819h246l-53 -238h-246zM643 1479l125 -586l383 586h295l-604 -889l-131 -590h-283l131 590l-211 889h295z" />
    <glyph glyph-name="Zcaron" unicode="&#x17d;" horiz-adv-x="1138" 
d="M1040 1561h-254l-165 299h229l94 -168l166 168h231zM1139 238l-54 -238h-1052l53 240l911 1001h-643l54 238h999l-49 -226l-940 -1015h721z" />
    <glyph glyph-name="zcaron" unicode="&#x17e;" horiz-adv-x="909" 
d="M846 1200h-254l-166 299h229l95 -168l165 168h232zM270 860l45 205h789l-39 -180l-664 -680h517l-46 -205h-835l41 180l663 680h-471z" />
    <glyph glyph-name="florin" unicode="&#x192;" 
d="M229 -176q70 0 137 131t336 795h-198l43 192h244q131 317 234 437t280 120q74 0 155 -18l-80 -217q-57 23 -92 22q-78 0 -129 -79t-117 -265h211l-43 -192h-245q-83 -192 -187 -451q-103 -259 -156 -352q-110 -195 -195 -255q-112 -79 -249 -81q-51 -2 -141 16l86 217
q68 -20 106 -20z" />
    <glyph glyph-name="circumflex" unicode="&#x2c6;" horiz-adv-x="569" 
d="M487 1499h254l170 -299h-231l-92 168l-168 -168h-230z" />
    <glyph glyph-name="caron" unicode="&#x2c7;" horiz-adv-x="569" 
d="M676 1200h-254l-166 299h229l95 -168l165 168h232z" />
    <glyph glyph-name="uni02C9" unicode="&#x2c9;" horiz-adv-x="569" 
d="M920 1266h-709l33 151h708z" />
    <glyph glyph-name="breve" unicode="&#x2d8;" horiz-adv-x="569" 
d="M537 1200q-147 0 -219 77q-71 77 -48 222h136q-8 -76 46 -110q54 -33 139 -33t143 32t93 111h136q-109 -299 -426 -299z" />
    <glyph glyph-name="dotaccent" unicode="&#x2d9;" horiz-adv-x="569" 
d="M485 1458h246l-53 -237h-246z" />
    <glyph glyph-name="ring" unicode="&#x2da;" horiz-adv-x="569" 
d="M624 1530q-46 0 -86 -33t-50 -78q-9 -45 16 -78q24 -33 70 -33t86 32t51 79q10 47 -16 79q-25 32 -71 32zM551 1198q-92 0 -142 64t-30 157q20 92 99 157q79 64 171 64t143 -64q50 -65 28 -157q-22 -93 -100 -157t-169 -64z" />
    <glyph glyph-name="ogonek" unicode="&#x2db;" horiz-adv-x="569" 
d="M283 -336q57 0 204 84l25 -74q-203 -117 -336 -116q-92 0 -142 47t-33 128q53 251 538 310l-7 -25q-313 -111 -346 -256q-10 -46 15 -72t82 -26z" />
    <glyph glyph-name="tilde" unicode="&#x2dc;" horiz-adv-x="569" 
d="M705 1229q-53 0 -149 36t-136 35q-66 0 -113 -83h-127q37 104 113 177t176 72q61 0 153 -38t122 -38t62 26t48 63h133q-109 -250 -282 -250z" />
    <glyph glyph-name="hungarumlaut" unicode="&#x2dd;" horiz-adv-x="569" 
d="M795 1499h315l-365 -299h-208zM397 1499h316l-336 -299h-201z" />
    <glyph glyph-name="uni03A9" unicode="&#x3a9;" horiz-adv-x="1607" 
d="M1139 1487q201 -1 335 -101t177 -252t2 -336q-41 -186 -160 -346t-264 -259l-2 -7h321l-41 -186h-573l31 139q149 80 271 238t171 380t-32 382q-81 159 -279 159t-355 -154q-158 -154 -207 -379q-48 -224 4 -389t162 -237l-30 -139h-576l41 186h320l2 7
q-100 100 -149 257q-48 157 -5 351q63 291 301 489t535 197z" />
    <glyph glyph-name="uni03BC" unicode="&#x3bc;" horiz-adv-x="1138" 
d="M442 -20q-25 0 -61 4l-82 -373h-254l322 1454h254l-154 -692q-23 -105 0 -147t90 -42q139 0 262 113l170 768h254l-235 -1065h-234l25 115q-223 -135 -357 -135z" />
    <glyph glyph-name="pi" unicode="&#x3c0;" horiz-adv-x="1312" 
d="M602 1096h920l-64 -195h-166l-129 -579q-45 -205 -41 -322h-229q-25 57 29 305l133 596h-346q-55 -207 -159 -483t-192 -418h-231q94 168 197 436q102 268 151 465q-160 0 -239 -24l6 153q106 66 360 66z" />
    <glyph glyph-name="endash" unicode="&#x2013;" horiz-adv-x="1024" 
d="M1122 446h-1024l39 172h1024z" />
    <glyph glyph-name="emdash" unicode="&#x2014;" horiz-adv-x="2048" 
d="M2146 446h-2048l39 172h2048z" />
    <glyph glyph-name="quoteleft" unicode="&#x2018;" horiz-adv-x="569" 
d="M739 1499l-172 -307h123l-63 -291h-283l64 291l198 307h133z" />
    <glyph glyph-name="quoteright" unicode="&#x2019;" horiz-adv-x="569" 
d="M356 881l174 307h-122l63 291h283l-64 -291l-201 -307h-133z" />
    <glyph glyph-name="quotesinglbase" unicode="&#x201a;" horiz-adv-x="569" 
d="M94 -307l172 307h-123l64 291h282l-63 -291l-199 -307h-133z" />
    <glyph glyph-name="quotedblleft" unicode="&#x201c;" horiz-adv-x="909" 
d="M682 1499l-172 -307h123l-64 -291h-282l63 291l199 307h133zM1139 1499l-172 -307h123l-64 -291h-283l64 291l199 307h133z" />
    <glyph glyph-name="quotedblright" unicode="&#x201d;" horiz-adv-x="909" 
d="M754 881l174 307h-123l63 291h283l-64 -291l-200 -307h-133zM297 881l174 307h-123l64 291h282l-63 -291l-201 -307h-133z" />
    <glyph glyph-name="quotedblbase" unicode="&#x201e;" horiz-adv-x="909" 
d="M492 -307l172 307h-123l63 291h283l-64 -291l-198 -307h-133zM35 -307l172 307h-123l63 291h283l-63 -291l-199 -307h-133z" />
    <glyph glyph-name="dagger" unicode="&#x2020;" horiz-adv-x="1024" 
d="M1143 1167l-47 -217l-310 62l-20 -330l-250 -834h-74l119 834l127 330l-338 -62l47 217l312 -61l32 393h205l-139 -393z" />
    <glyph glyph-name="daggerdbl" unicode="&#x2021;" horiz-adv-x="1024" 
d="M559 674l131 354l-336 -61l47 217l310 -62l30 377h205l-137 -377l338 62l-47 -217l-312 61l-24 -354l-131 -355l336 62l-47 -217l-312 61l-28 -377h-205l135 377l-336 -61l47 217l312 -62z" />
    <glyph glyph-name="bullet" unicode="&#x2022;" horiz-adv-x="1024" 
d="M756 1108q154 0 238 -108t50 -262t-166 -262t-286 -108t-238 109q-84 108 -49 262q33 153 165 261t286 108z" />
    <glyph glyph-name="ellipsis" unicode="&#x2026;" horiz-adv-x="2048" 
d="M487 0h-290l63 291h291zM1169 0h-290l63 291h291zM1851 0h-290l63 291h291z" />
    <glyph glyph-name="perthousand" unicode="&#x2030;" horiz-adv-x="2048" 
d="M152 -20l1171 1519h158l-1172 -1519h-157zM1851 606q125 0 195 -89t41 -214t-137 -214t-234 -89q-124 0 -194 89t-41 214t137 214t233 89zM1812 438q-57 0 -104 -39t-59 -96q-13 -57 17 -96t87 -39t106 39q48 39 60 96t-18 96q-32 39 -89 39zM1112 606q125 0 195 -89
t41 -214t-138 -214q-110 -89 -234 -89t-194 89t-41 214t137 214t234 89zM1073 438q-57 0 -104 -39t-59 -96t17 -96q30 -39 87 -39t105 39t61 96q12 57 -19 96t-88 39zM623 1311q-57 0 -105 -39t-61 -96q-12 -57 18 -97q31 -39 88 -39t105 39q47 39 59 97t-17 96
q-30 39 -87 39zM659 1479q125 0 195 -89t41 -214t-137 -214q-108 -90 -234 -90q-124 0 -194 90t-41 214q29 125 137 214t233 89z" />
    <glyph glyph-name="guilsinglleft" unicode="&#x2039;" horiz-adv-x="681" 
d="M201 526l319 334h230l-326 -334l180 -321h-229z" />
    <glyph glyph-name="guilsinglright" unicode="&#x203a;" horiz-adv-x="681" 
d="M543 860l172 -334l-318 -321h-229l324 321l-179 334h230z" />
    <glyph glyph-name="fraction" unicode="&#x2044;" horiz-adv-x="342" 
d="M-346 -20l1182 1519h180l-1180 -1519h-182z" />
    <glyph glyph-name="Euro" unicode="&#x20ac;" 
d="M1149 1499q234 0 348 -133l-125 -252q-59 82 -124 119t-163 37q-225 0 -360 -287h582l-95 -192h-553l-32 -140h514l-92 -192h-437q10 -250 262 -250q184 0 318 96l-57 -256q-150 -70 -316 -69q-243 0 -355 128t-114 351h-182l94 192h103q12 57 18 88l12 52h-153l92 192
h123q102 250 280 383t412 133z" />
    <glyph glyph-name="afii61289" unicode="&#x2113;" horiz-adv-x="1124" 
d="M942 1452q-66 0 -129 -82t-104 -264l-86 -389q360 313 411 538q45 197 -92 197zM625 -12q-178 0 -252 99t-56 257q0 8 5 25q-92 -61 -140 -93l-35 127q157 100 211 144l119 538q61 269 195 401t290 132t210 -102t16 -274t-192 -353q-155 -180 -421 -383l-16 -72
q-25 -128 21 -194t139 -66q170 0 340 203l78 -98q-219 -291 -512 -291z" />
    <glyph glyph-name="trademark" unicode="&#x2122;" horiz-adv-x="2048" 
d="M1071 1479l-39 -172h-248l-147 -672h-205l148 672h-246l39 172h698zM1544 1479l74 -529h4l305 529h305l-186 -844h-205l127 575l-8 4l-332 -579h-158l-77 577h-9l-127 -577h-204l186 844h305z" />
    <glyph glyph-name="Omega" unicode="&#x2126;" horiz-adv-x="1607" 
d="M1139 1487q201 -1 335 -101t177 -252t2 -336q-41 -186 -160 -346t-264 -259l-2 -7h321l-41 -186h-573l31 139q149 80 271 238t171 380t-32 382q-81 159 -279 159t-355 -154q-158 -154 -207 -379q-48 -224 4 -389t162 -237l-30 -139h-576l41 186h320l2 7
q-100 100 -149 257q-48 157 -5 351q63 291 301 489t535 197z" />
    <glyph glyph-name="estimated" unicode="&#x212e;" horiz-adv-x="2162" 
d="M1780 772v416q0 31 -21 49q-217 217 -513 217t-513 -223q-20 -20 -20 -51v-408q0 -14 10 -14h1049q8 0 8 14zM2091 719h-1368q-10 0 -10 -10v-414q0 -25 18 -47q215 -225 527 -225t534 251h121q-117 -135 -292 -214t-376 -78q-348 0 -596 221t-248 535t248 538t597 223
q349 0 597 -223t248 -539v-18z" />
    <glyph glyph-name="partialdiff" unicode="&#x2202;" 
d="M596 178h2q131 0 251 137t181 320q-8 73 -70 139t-176 66t-220 -106t-138 -244q-32 -140 16 -226t154 -86zM927 1653q240 0 365 -212t41 -591t-299 -621t-502 -241q-110 0 -190 46t-115 118q-80 165 -37 331q54 241 226 391t372 150q129 0 205 -63t103 -130h2q8 20 20 80
q51 236 -24 395q-76 158 -244 158t-322 -100l-34 166q193 123 433 123z" />
    <glyph glyph-name="Delta" unicode="&#x2206;" horiz-adv-x="1458" 
d="M346 186h834l-123 697q-4 39 -25 182q-20 143 -24 197h-9q-20 -40 -98 -174t-100 -173zM61 0l31 139l834 1360h280l219 -1358l-30 -141h-1334z" />
    <glyph glyph-name="product" unicode="&#x220f;" horiz-adv-x="1902" 
d="M1851 1253h-235v-1456h-234v1456h-536v-1456h-234v1456h-237v209h1476v-209z" />
    <glyph glyph-name="summation" unicode="&#x2211;" horiz-adv-x="1558" 
d="M1518 -203h-1145v148l557 684l-535 674v159h1088v-198h-762v-9l479 -591l-524 -646v-6h842v-215z" />
    <glyph glyph-name="minus" unicode="&#x2212;" horiz-adv-x="1228" 
d="M1241 422h-1065l49 221h1065z" />
    <glyph glyph-name="uni2215" unicode="&#x2215;" horiz-adv-x="342" 
d="M-346 -20l1182 1519h180l-1180 -1519h-182z" />
    <glyph glyph-name="uni2219" unicode="&#x2219;" horiz-adv-x="624" 
d="M460 688q64 0 102 -46t24 -112q-14 -64 -72 -108t-122 -45q-64 0 -99 45t-20 109q15 65 69 111t118 46z" />
    <glyph glyph-name="radical" unicode="&#x221a;" horiz-adv-x="1622" 
d="M1642 1747l-499 -2050h-195l-342 936l-164 -64l-41 131l347 140l256 -723q12 -53 24 -99q12 -45 16 -65h5q17 102 32 172l392 1622h169z" />
    <glyph glyph-name="infinity" unicode="&#x221e;" horiz-adv-x="1898" 
d="M1448 827h-2q-99 0 -209 -110q-23 -23 -59 -64t-45 -51q109 -127 177 -177t152 -50t139 67q54 68 54 162q-1 94 -59 158t-148 65zM670 375h2q94 0 167 66t144 149q-63 82 -95 120t-95 78t-145 39t-137 -67q-56 -66 -56 -162t60 -160q61 -63 155 -63zM1792 606v-2
q0 -162 -102 -262t-240 -100q-98 0 -192 57t-201 193q-101 -121 -193 -186q-92 -64 -220 -64t-227 101t-99 255t100 255t252 101q113 0 206 -63t189 -182q115 127 166 165q109 80 241 80t226 -96t94 -252z" />
    <glyph glyph-name="integral" unicode="&#x222b;" horiz-adv-x="1157" 
d="M1012 1636q-74 0 -111 -51q-66 -78 -65 -360q0 -164 15 -500t15 -522q0 -279 -84 -418q-78 -139 -258 -139q-100 0 -162 37l33 163q49 -24 107 -24q160 1 160 350q0 219 -17 562q-16 343 -16 518t28 283q29 108 99 177q84 90 235 90q76 1 129 -26l-28 -158q-37 18 -80 18
z" />
    <glyph glyph-name="approxequal" unicode="&#x2248;" horiz-adv-x="1433" 
d="M1047 256q-61 0 -113 19t-158 81q-108 62 -166 62t-100 -26q-43 -26 -66 -54t-59 -80l-88 82q51 96 135 154t178 59q94 0 160 -38q14 -7 44 -23t44 -23t72 -42q57 -34 119 -34q63 0 109 38t97 120l86 -82q-117 -213 -294 -213zM1049 647q-63 -1 -115 19t-156 80
q-102 60 -164 61q-101 0 -169 -77q-24 -28 -60 -79l-88 80q51 97 135 155t182 58t171 -46q9 -5 35 -19q26 -13 32 -17t30 -17t30 -17q63 -44 132 -44q68 0 115 39t96 119l86 -82q-115 -213 -292 -213z" />
    <glyph glyph-name="notequal" unicode="&#x2260;" horiz-adv-x="1474" 
d="M1368 885v-140h-375l-137 -301h512v-139h-567l-115 -254l-111 49l95 205h-312v139h367l137 301h-504v140h560l110 248l113 -50l-92 -198h319z" />
    <glyph glyph-name="lessequal" unicode="&#x2264;" horiz-adv-x="1517" 
d="M1411 -18h-1012v141h1012v-141zM1405 205l-995 481v150l993 479v-162l-848 -389v-4l850 -393v-162z" />
    <glyph glyph-name="greaterequal" unicode="&#x2265;" horiz-adv-x="1515" 
d="M1407 -18h-1006v141h1006v-141zM412 1315l995 -481v-148l-995 -481v162l850 391v6l-850 389v162z" />
    <glyph glyph-name="lozenge" unicode="&#x25ca;" horiz-adv-x="1624" 
d="M1303 725l-281 541q-25 53 -41 112h-6q-16 -53 -43 -112l-279 -531l283 -547q27 -61 37 -108h8q18 68 39 106zM1511 731l-444 -835h-186l-437 835l443 836h188z" />
    </font>
</defs>
</svg>
